<svg xmlns="http://www.w3.org/2000/svg" viewBox="0 0 300 300">
    <g>
        <path fill="#12b3ac" d="M190.4 92.29V28.89H109.66C108.11 87.17 109.66 173 271.14 173c-52.73-3.7-80.74-13.22-80.74-80.74"></path>
        <path fill="#d1dc27" d="M230.71 92.29H190.4c0 67.49 25.33 76.6 80.68 80.73V132.66a40.49 40.49 0 0 0-40.37-40.37"></path>
        <path fill="#12b3ac" d="M109.6 207.71v63.4h80.74c1.55-58.28 0-144.14-161.48-144.14 52.73 3.7 80.74 13.22 80.74 80.74"></path>
        <path fill="#d1dc27" d="M69.29 207.71H109.6c0-67.49-25.33-76.6-80.68-80.73v40.36a40.49 40.49 0 0 0 40.37 40.37"></path>
    </g>
</svg>